# xmcd
# 
# Track frame offsets:
#     150
#     19617
#     41690
#     61578
#     81213
# 
# Disc length: 1403
# 
# Revision: 0
# Processed by: cddbd v1.5.2PL0 Copyright (c) Steve Scherf et al.
# Submitted via: fre:ac v1.0.17
# 
DISCID=30057905
DTITLE=NIKIIE - CHROMATOGRAPHY
DYEAR=2012
DGENRE=JPop
TTITLE0=Duty Friend
TTITLE1=Running Bird
TTITLE2=光の月
TTITLE3=Everytime
TTITLE4=harmonic harmonist
EXTD=
EXTT0=
EXTT1=
EXTT2=
EXTT3=
EXTT4=
PLAYORDER=
